<?xml version="1.0" encoding="UTF-8"?>
<svg id="Layer_2" data-name="Layer 2" xmlns="http://www.w3.org/2000/svg" xmlns:xlink="http://www.w3.org/1999/xlink" viewBox="0 0 192.48 119.6">
  <defs>
    <style>
      .cls-1 {
        letter-spacing: 0em;
      }

      .cls-2 {
        stroke: #484b6a;
        stroke-width: .25px;
      }

      .cls-2, .cls-3, .cls-4, .cls-5, .cls-6, .cls-7, .cls-8, .cls-9 {
        fill: none;
      }

      .cls-2, .cls-3, .cls-4, .cls-7, .cls-8, .cls-9 {
        stroke-miterlimit: 10;
      }

      .cls-3 {
        stroke: #fbfb50;
      }

      .cls-3, .cls-4, .cls-7, .cls-8, .cls-9 {
        stroke-width: .75px;
      }

      .cls-10 {
        fill: #484b6a;
        font-family: Inter-Regular, Inter;
        font-size: 4px;
      }

      .cls-4, .cls-9 {
        stroke: #ff9292;
      }

      .cls-6 {
        clip-path: url(#clippath);
      }

      .cls-7 {
        stroke: #adeaa1;
      }

      .cls-8 {
        stroke: #ffbf92;
      }

      .cls-9 {
        fill-rule: evenodd;
      }
    </style>
    <clipPath id="clippath">
      <rect class="cls-5" x=".58" y=".6" width="190" height="119"/>
    </clipPath>
  </defs>
  <g id="Layer_1-2" data-name="Layer 1">
    <g class="cls-6">
      <path class="cls-4" d="m7.08,111c1.27-.76,2.86-2.01,3.91-4,.64-1.21.87-2.31.98-3,.53-3.23,1.29-14.58,1.95-30L14.58,0"/>
      <path class="cls-4" d="m8.24,110.6c1.29-.94,3.07-2.4,4.84-4.5,2.98-3.53,4.61-7.28,6-12,2.68-9.08,2.99-16.58,3-17C23.33,40.21,24,4.87,24.08.1"/>
      <path class="cls-9" d="m56.43.1c-2.51,15.36-5.62,28.2-8.35,38-3.85,13.85-7.27,22.87-10,30-2.04,5.33-6.2,15.82-13,26-2.07,3.1-4.74,6.71-8.92,10.33-3.43,2.97-6.7,4.93-9.08,6.17"/>
      <line class="cls-3" x1="191.08" y1="98.85" x2="7.08" y2="110.85"/>
      <path class="cls-8" d="m7.08,110.89c30.21-9.05,62.76-20.19,97-34,32.06-12.93,61.42-26.5,88-40"/>
      <text class="cls-10" transform="translate(90.7 117.8)"><tspan x="0" y="0">elemen</tspan><tspan class="cls-1" x="13.75" y="0">t</tspan><tspan x="15.17" y="0">s</tspan></text>
      <text class="cls-10" transform="translate(3.45 66.16) rotate(-90)"><tspan x="0" y="0">operations</tspan></text>
      <path class="cls-7" d="m191.02,110.88c-61.31,0-122.62-.02-183.93-.03"/>
      <line class="cls-2" x1="7.08" y1=".23" x2="7.08" y2="111.23"/>
      <line class="cls-2" x1="192.48" y1="111.1" x2="6.98" y2="111.1"/>
      <text class="cls-10" transform="translate(14.37 6.29)"><tspan x="0" y="0">O(n!)</tspan></text>
      <text class="cls-10" transform="translate(25.17 6.29)"><tspan x="0" y="0">O(2^n)</tspan></text>
      <text class="cls-10" transform="translate(56.78 6.29)"><tspan x="0" y="0">O(n^2)</tspan></text>
      <text class="cls-10" transform="translate(171.1 37.29)"><tspan x="0" y="0">O(n log n)</tspan></text>
      <text class="cls-10" transform="translate(181.46 97.29)"><tspan x="0" y="0">O(n)</tspan></text>
      <text class="cls-10" transform="translate(164.52 109.29)"><tspan x="0" y="0">O(log n), O(1)</tspan></text>
    </g>
  </g>
</svg>